<?xml version="1.0" encoding="UTF-8"?>
<!DOCTYPE svg PUBLIC "-//W3C//DTD SVG 1.1//EN" "http://www.w3.org/Graphics/SVG/1.1/DTD/svg11.dtd">
<!-- Creator: CorelDRAW -->
<svg xmlns="http://www.w3.org/2000/svg" xml:space="preserve" width="297mm" height="210mm" version="1.1" style="shape-rendering:geometricPrecision; text-rendering:geometricPrecision; image-rendering:optimizeQuality; fill-rule:evenodd; clip-rule:evenodd"
viewBox="0 0 29700 21000"
 xmlns:xlink="http://www.w3.org/1999/xlink"
 xmlns:xodm="http://www.corel.com/coreldraw/odm/2003">
 <defs>
  <style type="text/css">
   <![CDATA[
    .str0 {stroke:#F2F2F2;stroke-width:35.28;stroke-miterlimit:10}
    .str1 {stroke:white;stroke-width:35.28;stroke-miterlimit:10}
    .str2 {stroke:white;stroke-width:35.28;stroke-miterlimit:10;stroke-dasharray:141.990000 141.990000}
    .fil18 {fill:none;fill-rule:nonzero}
    .fil6 {fill:#0F212B;fill-rule:nonzero}
    .fil17 {fill:#1A3141;fill-rule:nonzero}
    .fil5 {fill:#1C4259;fill-rule:nonzero}
    .fil16 {fill:#212846;fill-rule:nonzero}
    .fil2 {fill:#83C3F6;fill-rule:nonzero}
    .fil11 {fill:#976E3D;fill-rule:nonzero}
    .fil3 {fill:#9CCFF8;fill-rule:nonzero}
    .fil12 {fill:#A87944;fill-rule:nonzero}
    .fil9 {fill:#AA7944;fill-rule:nonzero}
    .fil15 {fill:#CD3836;fill-rule:nonzero}
    .fil8 {fill:#CFA569;fill-rule:nonzero}
    .fil10 {fill:#CFA56B;fill-rule:nonzero}
    .fil7 {fill:#E8BF7C;fill-rule:nonzero}
    .fil14 {fill:#F2F2F2;fill-rule:nonzero}
    .fil13 {fill:#FF524F;fill-rule:nonzero}
    .fil0 {fill:#9CCFF8;fill-rule:nonzero;fill-opacity:0.250980}
    .fil1 {fill:#9CCFF8;fill-rule:nonzero;fill-opacity:0.501961}
    .fil4 {fill:#9CCFF8;fill-rule:nonzero;fill-opacity:0.749020}
   ]]>
  </style>
 </defs>
 <g id="Layer_x0020_1">
  <metadata id="CorelCorpID_0Corel-Layer"/>
  <g id="_105553346269024">
   <g>
    <polygon class="fil0" points="23776.6,18402.56 19246.81,18402.56 19246.81,11507.95 19793.11,11507.95 19793.11,9583.57 23776.6,9583.57 "/>
    <polygon class="fil0" points="16983.67,6242.61 16983.67,5361.46 14840.69,5361.46 14840.69,6242.61 14039.08,6242.61 14039.08,16120.5 17785.26,16120.5 17785.26,6242.61 "/>
    <polygon class="fil0" points="5075.2,9933.49 5075.2,18402.56 9897.18,18402.56 9897.18,13260.61 9445.87,13260.61 9445.87,9933.49 "/>
    <polygon class="fil0" points="18940.4,6242.61 18289.46,6242.61 18289.46,16120.5 22035.68,16120.5 22035.68,6141.55 19793.11,6141.55 19793.11,11507.95 18940.4,11507.95 "/>
    <polygon class="fil1" points="13502.67,5436.56 13502.67,3573.7 12639.87,3573.7 12639.87,1881.79 10538.68,1881.79 10538.68,3573.7 10289.31,3573.7 10289.31,13260.61 9445.87,13260.61 9445.87,7279.22 8486.09,7279.22 8486.09,18402.56 14692.39,18402.56 14692.39,5436.56 "/>
    <g>
     <g>
      <g>
       <g>
        <polygon class="fil2" points="9445.87,7926.06 9097.33,7926.06 9097.33,7448.31 9445.87,7448.31 "/>
       </g>
       <g>
        <polygon class="fil2" points="10886.38,7926.06 10289.31,7926.06 10289.31,7448.31 10886.38,7448.31 "/>
       </g>
       <g>
        <polygon class="fil2" points="11998.86,7926.06 11340.33,7926.06 11340.33,7448.31 11998.86,7448.31 "/>
       </g>
       <g>
        <polygon class="fil2" points="13129.23,7926.06 12470.75,7926.06 12470.75,7448.31 13129.23,7448.31 "/>
       </g>
       <g>
        <polygon class="fil2" points="14241.8,7926.06 13583.32,7926.06 13583.32,7448.31 14241.8,7448.31 "/>
       </g>
      </g>
      <g>
       <g>
        <polygon class="fil2" points="9445.87,8571.83 9097.33,8571.83 9097.33,8094.11 9445.87,8094.11 "/>
       </g>
       <g>
        <polygon class="fil2" points="10886.38,8571.83 10289.31,8571.83 10289.31,8094.11 10886.38,8094.11 "/>
       </g>
       <g>
        <polygon class="fil2" points="11998.86,8571.83 11340.33,8571.83 11340.33,8094.11 11998.86,8094.11 "/>
       </g>
       <g>
        <polygon class="fil2" points="13129.23,8571.83 12470.75,8571.83 12470.75,8094.11 13129.23,8094.11 "/>
       </g>
       <g>
        <polygon class="fil2" points="14241.8,8571.83 13583.32,8571.83 13583.32,8094.11 14241.8,8094.11 "/>
       </g>
      </g>
      <g>
       <g>
        <polygon class="fil2" points="9445.87,9244.27 9097.33,9244.27 9097.33,8766.49 9445.87,8766.49 "/>
       </g>
       <g>
        <polygon class="fil2" points="10886.38,9244.27 10289.31,9244.27 10289.31,8766.49 10886.38,8766.49 "/>
       </g>
       <g>
        <polygon class="fil2" points="11998.86,9244.27 11340.33,9244.27 11340.33,8766.49 11998.86,8766.49 "/>
       </g>
       <g>
        <polygon class="fil2" points="13129.23,9244.27 12470.75,9244.27 12470.75,8766.49 13129.23,8766.49 "/>
       </g>
       <g>
        <polygon class="fil2" points="14241.8,9244.27 13583.32,9244.27 13583.32,8766.49 14241.8,8766.49 "/>
       </g>
      </g>
     </g>
     <g>
      <g>
       <g>
        <g>
         <polygon class="fil2" points="13514.4,7802.15 13514.4,7926.06 14310.7,7926.06 14310.7,7802.15 "/>
        </g>
        <g>
         <polygon class="fil2" points="13514.4,8456.84 13514.4,8571.83 14310.7,8571.83 14310.7,8456.84 "/>
        </g>
        <g>
         <polygon class="fil2" points="13514.4,9120.34 13514.4,9244.27 14310.7,9244.27 14310.7,9120.34 "/>
        </g>
       </g>
      </g>
      <g>
       <g>
        <g>
         <polygon class="fil2" points="12401.82,7802.15 12401.82,7926.06 13198.12,7926.06 13198.12,7802.15 "/>
        </g>
        <g>
         <polygon class="fil2" points="12401.82,8456.84 12401.82,8571.83 13198.12,8571.83 13198.12,8456.84 "/>
        </g>
        <g>
         <polygon class="fil2" points="12401.82,9120.34 12401.82,9244.27 13198.12,9244.27 13198.12,9120.34 "/>
        </g>
       </g>
      </g>
      <g>
       <g>
        <g>
         <polygon class="fil2" points="11271.4,7802.15 11271.4,7926.06 12067.67,7926.06 12067.67,7802.15 "/>
        </g>
        <g>
         <polygon class="fil2" points="11271.4,8456.84 11271.4,8571.83 12067.67,8571.83 12067.67,8456.84 "/>
        </g>
        <g>
         <polygon class="fil2" points="11271.4,9120.34 11271.4,9244.27 12067.67,9244.27 12067.67,9120.34 "/>
        </g>
       </g>
      </g>
      <g>
       <g>
        <g>
         <polygon class="fil2" points="10289.31,7926.06 10955.25,7926.06 10955.25,7802.15 10289.31,7802.15 "/>
        </g>
        <g>
         <polygon class="fil2" points="10289.31,8571.83 10955.25,8571.83 10955.25,8456.84 10289.31,8456.84 "/>
        </g>
        <g>
         <polygon class="fil2" points="10289.31,9244.27 10955.25,9244.27 10955.25,9120.34 10289.31,9120.34 "/>
        </g>
       </g>
      </g>
      <g>
       <g>
        <g>
         <g>
          <polygon class="fil2" points="9028.46,7802.15 9028.46,7926.06 9445.87,7926.06 9445.87,7802.15 "/>
         </g>
        </g>
        <g>
         <g>
          <polygon class="fil2" points="9028.46,8456.84 9028.46,8571.83 9445.87,8571.83 9445.87,8456.84 "/>
         </g>
        </g>
        <g>
         <g>
          <polygon class="fil2" points="9028.46,9120.34 9028.46,9244.27 9445.87,9244.27 9445.87,9120.34 "/>
         </g>
        </g>
       </g>
      </g>
     </g>
     <g>
      <g>
       <g>
        <polygon class="fil2" points="10895.31,5378.47 10290.99,5378.47 10290.99,4940.02 10895.31,4940.02 "/>
       </g>
       <g>
        <polygon class="fil2" points="11932.8,5378.47 11328.5,5378.47 11328.5,4940.02 11932.8,4940.02 "/>
       </g>
       <g>
        <polygon class="fil2" points="12953.71,5378.47 12349.4,5378.47 12349.4,4940.02 12953.71,4940.02 "/>
       </g>
      </g>
      <g>
       <g>
        <polygon class="fil2" points="10895.31,5971.08 10290.99,5971.08 10290.99,5532.71 10895.31,5532.71 "/>
       </g>
       <g>
        <polygon class="fil2" points="11932.8,5971.08 11328.5,5971.08 11328.5,5532.71 11932.8,5532.71 "/>
       </g>
       <g>
        <polygon class="fil2" points="12953.71,5971.08 12349.4,5971.08 12349.4,5532.71 12953.71,5532.71 "/>
       </g>
      </g>
      <g>
       <g>
        <polygon class="fil2" points="10895.31,6588.17 10290.99,6588.17 10290.99,6149.69 10895.31,6149.69 "/>
       </g>
       <g>
        <polygon class="fil2" points="11932.8,6588.17 11328.5,6588.17 11328.5,6149.69 11932.8,6149.69 "/>
       </g>
       <g>
        <polygon class="fil2" points="12953.71,6588.17 12349.4,6588.17 12349.4,6149.69 12953.71,6149.69 "/>
       </g>
      </g>
     </g>
     <g>
      <g>
       <g>
        <g>
         <polygon class="fil2" points="12286.19,5264.72 12286.19,5378.47 13016.84,5378.47 13016.84,5264.72 "/>
        </g>
        <g>
         <polygon class="fil2" points="12286.19,5865.53 12286.19,5971.08 13016.84,5971.08 13016.84,5865.53 "/>
        </g>
        <g>
         <polygon class="fil2" points="12286.19,6474.47 12286.19,6588.17 13016.84,6588.17 13016.84,6474.47 "/>
        </g>
       </g>
      </g>
      <g>
       <g>
        <g>
         <polygon class="fil2" points="11265.29,5264.72 11265.29,5378.47 11996.05,5378.47 11996.05,5264.72 "/>
        </g>
        <g>
         <polygon class="fil2" points="11265.29,5865.53 11265.29,5971.08 11996.05,5971.08 11996.05,5865.53 "/>
        </g>
        <g>
         <polygon class="fil2" points="11265.29,6474.47 11265.29,6588.17 11996.05,6588.17 11996.05,6474.47 "/>
        </g>
       </g>
      </g>
      <g>
       <g>
        <g>
         <g>
          <polygon class="fil2" points="10289.31,5378.47 10958.57,5378.47 10958.57,5264.72 10289.31,5264.72 "/>
         </g>
        </g>
        <g>
         <g>
          <polygon class="fil2" points="10289.31,5971.08 10958.57,5971.08 10958.57,5865.53 10289.31,5865.53 "/>
         </g>
        </g>
        <g>
         <g>
          <polygon class="fil2" points="10289.31,6588.17 10958.57,6588.17 10958.57,6474.47 10289.31,6474.47 "/>
         </g>
        </g>
       </g>
      </g>
     </g>
     <g>
      <g>
       <g>
        <polygon class="fil2" points="9445.87,10085.66 9097.33,10085.66 9097.33,9607.88 9445.87,9607.88 "/>
       </g>
       <g>
        <polygon class="fil2" points="10886.38,10085.66 10289.31,10085.66 10289.31,9607.88 10886.38,9607.88 "/>
       </g>
       <g>
        <polygon class="fil2" points="11998.86,10085.66 11340.33,10085.66 11340.33,9607.88 11998.86,9607.88 "/>
       </g>
       <g>
        <polygon class="fil2" points="13129.23,10085.66 12470.75,10085.66 12470.75,9607.88 13129.23,9607.88 "/>
       </g>
       <g>
        <polygon class="fil2" points="14241.8,10085.66 13583.32,10085.66 13583.32,9607.88 14241.8,9607.88 "/>
       </g>
      </g>
      <g>
       <g>
        <polygon class="fil2" points="9445.87,10731.46 9097.33,10731.46 9097.33,10253.78 9445.87,10253.78 "/>
       </g>
       <g>
        <polygon class="fil2" points="10886.38,10731.46 10289.31,10731.46 10289.31,10253.78 10886.38,10253.78 "/>
       </g>
       <g>
        <polygon class="fil2" points="11998.86,10731.46 11340.33,10731.46 11340.33,10253.78 11998.86,10253.78 "/>
       </g>
       <g>
        <polygon class="fil2" points="13129.23,10731.46 12470.75,10731.46 12470.75,10253.78 13129.23,10253.78 "/>
       </g>
       <g>
        <polygon class="fil2" points="14241.8,10731.46 13583.32,10731.46 13583.32,10253.78 14241.8,10253.78 "/>
       </g>
      </g>
      <g>
       <g>
        <polygon class="fil2" points="9445.87,11403.9 9097.33,11403.9 9097.33,10926.06 9445.87,10926.06 "/>
       </g>
       <g>
        <polygon class="fil2" points="10886.38,11403.9 10289.31,11403.9 10289.31,10926.06 10886.38,10926.06 "/>
       </g>
       <g>
        <polygon class="fil2" points="11998.86,11403.9 11340.33,11403.9 11340.33,10926.06 11998.86,10926.06 "/>
       </g>
       <g>
        <polygon class="fil2" points="13129.23,11403.9 12470.75,11403.9 12470.75,10926.06 13129.23,10926.06 "/>
       </g>
       <g>
        <polygon class="fil2" points="14241.8,11403.9 13583.32,11403.9 13583.32,10926.06 14241.8,10926.06 "/>
       </g>
      </g>
     </g>
     <g>
      <g>
       <g>
        <g>
         <polygon class="fil2" points="13514.4,9961.74 13514.4,10085.66 14310.7,10085.66 14310.7,9961.74 "/>
        </g>
        <g>
         <polygon class="fil2" points="13514.4,10616.41 13514.4,10731.46 14310.7,10731.46 14310.7,10616.41 "/>
        </g>
        <g>
         <polygon class="fil2" points="13514.4,11279.96 13514.4,11403.9 14310.7,11403.9 14310.7,11279.96 "/>
        </g>
       </g>
      </g>
      <g>
       <g>
        <g>
         <polygon class="fil2" points="12401.82,9961.74 12401.82,10085.66 13198.12,10085.66 13198.12,9961.74 "/>
        </g>
        <g>
         <polygon class="fil2" points="12401.82,10616.41 12401.82,10731.46 13198.12,10731.46 13198.12,10616.41 "/>
        </g>
        <g>
         <polygon class="fil2" points="12401.82,11279.96 12401.82,11403.9 13198.12,11403.9 13198.12,11279.96 "/>
        </g>
       </g>
      </g>
      <g>
       <g>
        <g>
         <polygon class="fil2" points="11271.4,9961.74 11271.4,10085.66 12067.67,10085.66 12067.67,9961.74 "/>
        </g>
        <g>
         <polygon class="fil2" points="11271.4,10616.41 11271.4,10731.46 12067.67,10731.46 12067.67,10616.41 "/>
        </g>
        <g>
         <polygon class="fil2" points="11271.4,11279.96 11271.4,11403.9 12067.67,11403.9 12067.67,11279.96 "/>
        </g>
       </g>
      </g>
      <g>
       <g>
        <g>
         <polygon class="fil2" points="10289.31,10085.66 10955.25,10085.66 10955.25,9961.74 10289.31,9961.74 "/>
        </g>
        <g>
         <polygon class="fil2" points="10289.31,10731.46 10955.25,10731.46 10955.25,10616.41 10289.31,10616.41 "/>
        </g>
        <g>
         <polygon class="fil2" points="10289.31,11403.9 10955.25,11403.9 10955.25,11279.96 10289.31,11279.96 "/>
        </g>
       </g>
      </g>
      <g>
       <g>
        <g>
         <g>
          <polygon class="fil2" points="9028.46,9961.74 9028.46,10085.66 9445.87,10085.66 9445.87,9961.74 "/>
         </g>
        </g>
        <g>
         <g>
          <polygon class="fil2" points="9028.46,10616.41 9028.46,10731.46 9445.87,10731.46 9445.87,10616.41 "/>
         </g>
        </g>
        <g>
         <g>
          <polygon class="fil2" points="9028.46,11279.96 9028.46,11403.9 9445.87,11403.9 9445.87,11279.96 "/>
         </g>
        </g>
       </g>
      </g>
     </g>
     <g>
      <g>
       <g>
        <polygon class="fil2" points="9445.87,12245.25 9097.33,12245.25 9097.33,11767.51 9445.87,11767.51 "/>
       </g>
       <g>
        <polygon class="fil2" points="10886.38,12245.25 10289.31,12245.25 10289.31,11767.51 10886.38,11767.51 "/>
       </g>
       <g>
        <polygon class="fil2" points="11998.86,12245.25 11340.33,12245.25 11340.33,11767.51 11998.86,11767.51 "/>
       </g>
       <g>
        <polygon class="fil2" points="13129.23,12245.25 12470.75,12245.25 12470.75,11767.51 13129.23,11767.51 "/>
       </g>
       <g>
        <polygon class="fil2" points="14241.8,12245.25 13583.32,12245.25 13583.32,11767.51 14241.8,11767.51 "/>
       </g>
      </g>
      <g>
       <g>
        <polygon class="fil2" points="9445.87,12891.03 9097.33,12891.03 9097.33,12413.37 9445.87,12413.37 "/>
       </g>
       <g>
        <polygon class="fil2" points="10886.38,12891.03 10289.31,12891.03 10289.31,12413.37 10886.38,12413.37 "/>
       </g>
       <g>
        <polygon class="fil2" points="11998.86,12891.03 11340.33,12891.03 11340.33,12413.37 11998.86,12413.37 "/>
       </g>
       <g>
        <polygon class="fil2" points="13129.23,12891.03 12470.75,12891.03 12470.75,12413.37 13129.23,12413.37 "/>
       </g>
       <g>
        <polygon class="fil2" points="14241.8,12891.03 13583.32,12891.03 13583.32,12413.37 14241.8,12413.37 "/>
       </g>
      </g>
      <g>
       <g>
        <polygon class="fil2" points="9755.81,13563.49 9097.33,13563.49 9097.33,13085.68 9445.87,13085.68 9445.87,13260.61 9755.81,13260.61 "/>
       </g>
       <g>
        <polygon class="fil2" points="10886.38,13563.49 10227.81,13563.49 10227.81,13260.61 10289.31,13260.61 10289.31,13085.68 10886.38,13085.68 "/>
       </g>
       <g>
        <polygon class="fil2" points="11998.86,13563.49 11340.33,13563.49 11340.33,13085.68 11998.86,13085.68 "/>
       </g>
       <g>
        <polygon class="fil2" points="13129.23,13563.49 12470.75,13563.49 12470.75,13085.68 13129.23,13085.68 "/>
       </g>
       <g>
        <polygon class="fil2" points="14241.8,13563.49 13583.32,13563.49 13583.32,13085.68 14241.8,13085.68 "/>
       </g>
      </g>
     </g>
     <g>
      <g>
       <g>
        <g>
         <polygon class="fil2" points="13514.4,12121.29 13514.4,12245.25 14310.7,12245.25 14310.7,12121.29 "/>
        </g>
        <g>
         <polygon class="fil2" points="13514.4,12776.03 13514.4,12891.03 14310.7,12891.03 14310.7,12776.03 "/>
        </g>
        <g>
         <polygon class="fil2" points="13514.4,13439.58 13514.4,13563.49 14310.7,13563.49 14310.7,13439.58 "/>
        </g>
       </g>
      </g>
      <g>
       <g>
        <g>
         <polygon class="fil2" points="12401.82,12121.29 12401.82,12245.25 13198.12,12245.25 13198.12,12121.29 "/>
        </g>
        <g>
         <polygon class="fil2" points="12401.82,12776.03 12401.82,12891.03 13198.12,12891.03 13198.12,12776.03 "/>
        </g>
        <g>
         <polygon class="fil2" points="12401.82,13439.58 12401.82,13563.49 13198.12,13563.49 13198.12,13439.58 "/>
        </g>
       </g>
      </g>
      <g>
       <g>
        <g>
         <polygon class="fil2" points="11271.4,12121.29 11271.4,12245.25 12067.67,12245.25 12067.67,12121.29 "/>
        </g>
        <g>
         <polygon class="fil2" points="11271.4,12776.03 11271.4,12891.03 12067.67,12891.03 12067.67,12776.03 "/>
        </g>
        <g>
         <polygon class="fil2" points="11271.4,13439.58 11271.4,13563.49 12067.67,13563.49 12067.67,13439.58 "/>
        </g>
       </g>
      </g>
      <g>
       <g>
        <g>
         <polygon class="fil2" points="10289.31,12245.25 10955.25,12245.25 10955.25,12121.29 10289.31,12121.29 "/>
        </g>
        <g>
         <polygon class="fil2" points="10289.31,12891.03 10955.25,12891.03 10955.25,12776.03 10289.31,12776.03 "/>
        </g>
        <g>
         <polygon class="fil2" points="10158.99,13439.58 10158.99,13563.49 10955.25,13563.49 10955.25,13439.58 "/>
        </g>
       </g>
      </g>
      <g>
       <g>
        <g>
         <g>
          <polygon class="fil2" points="9028.46,12121.29 9028.46,12245.25 9445.87,12245.25 9445.87,12121.29 "/>
         </g>
        </g>
        <g>
         <g>
          <polygon class="fil2" points="9028.46,12776.03 9028.46,12891.03 9445.87,12891.03 9445.87,12776.03 "/>
         </g>
        </g>
        <g>
         <g>
          <polygon class="fil2" points="9028.46,13439.58 9028.46,13563.49 9824.73,13563.49 9824.73,13439.58 "/>
         </g>
        </g>
       </g>
      </g>
     </g>
    </g>
    <polygon class="fil3" points="15733,7466.15 15733,18402.56 19464.72,18402.56 19464.72,11507.95 18940.4,11507.95 18940.4,7466.15 "/>
    <g>
     <g>
      <g>
       <g>
        <g>
         <polygon class="fil2" points="16979.56,8474.81 16254.54,8474.81 16254.54,8170.25 16979.56,8170.25 "/>
        </g>
        <g>
         <polygon class="fil2" points="16979.56,9210.28 16254.54,9210.28 16254.54,8905.69 16979.56,8905.69 "/>
        </g>
        <g>
         <polygon class="fil2" points="16979.56,9945.69 16254.54,9945.69 16254.54,9641.05 16979.56,9641.05 "/>
        </g>
        <g>
         <polygon class="fil2" points="16979.56,10681.06 16254.54,10681.06 16254.54,10376.4 16979.56,10376.4 "/>
        </g>
        <g>
         <polygon class="fil2" points="16979.56,11416.5 16254.54,11416.5 16254.54,11111.87 16979.56,11111.87 "/>
        </g>
        <g>
         <polygon class="fil2" points="16979.56,12151.97 16254.54,12151.97 16254.54,11847.31 16979.56,11847.31 "/>
        </g>
        <g>
         <polygon class="fil2" points="16979.56,12887.29 16254.54,12887.29 16254.54,12582.71 16979.56,12582.71 "/>
        </g>
        <g>
         <polygon class="fil2" points="16979.56,13622.8 16254.54,13622.8 16254.54,13318.12 16979.56,13318.12 "/>
        </g>
        <g>
         <polygon class="fil2" points="16979.56,14358.11 16254.54,14358.11 16254.54,14053.54 16979.56,14053.54 "/>
        </g>
       </g>
       <g>
        <g>
         <polygon class="fil2" points="18014.69,8474.81 17289.73,8474.81 17289.73,8170.25 18014.69,8170.25 "/>
        </g>
        <g>
         <polygon class="fil2" points="18014.69,9210.28 17289.73,9210.28 17289.73,8905.69 18014.69,8905.69 "/>
        </g>
        <g>
         <polygon class="fil2" points="18014.69,9945.69 17289.73,9945.69 17289.73,9641.05 18014.69,9641.05 "/>
        </g>
        <g>
         <polygon class="fil2" points="18014.69,10681.06 17289.73,10681.06 17289.73,10376.4 18014.69,10376.4 "/>
        </g>
        <g>
         <polygon class="fil2" points="18014.69,11416.5 17289.73,11416.5 17289.73,11111.87 18014.69,11111.87 "/>
        </g>
        <g>
         <polygon class="fil2" points="18014.69,12151.97 17289.73,12151.97 17289.73,11847.31 18014.69,11847.31 "/>
        </g>
        <g>
         <polygon class="fil2" points="18014.69,12887.29 17289.73,12887.29 17289.73,12582.71 18014.69,12582.71 "/>
        </g>
        <g>
         <polygon class="fil2" points="18014.69,13622.8 17289.73,13622.8 17289.73,13318.12 18014.69,13318.12 "/>
        </g>
        <g>
         <polygon class="fil2" points="18014.69,14358.11 17289.73,14358.11 17289.73,14053.54 18014.69,14053.54 "/>
        </g>
       </g>
       <g>
        <g>
         <polygon class="fil2" points="18940.4,8474.81 18324.85,8474.81 18324.85,8170.25 18940.4,8170.25 "/>
        </g>
        <g>
         <polygon class="fil2" points="18940.4,9210.28 18324.85,9210.28 18324.85,8905.69 18940.4,8905.69 "/>
        </g>
        <g>
         <polygon class="fil2" points="18940.4,9945.69 18324.85,9945.69 18324.85,9641.05 18940.4,9641.05 "/>
        </g>
        <g>
         <polygon class="fil2" points="18940.4,10681.06 18324.85,10681.06 18324.85,10376.4 18940.4,10376.4 "/>
        </g>
        <g>
         <polygon class="fil2" points="18940.4,11416.5 18324.85,11416.5 18324.85,11111.87 18940.4,11111.87 "/>
        </g>
        <g>
         <polygon class="fil2" points="19049.86,12151.97 18324.85,12151.97 18324.85,11847.31 19049.86,11847.31 "/>
        </g>
        <g>
         <polygon class="fil2" points="19049.86,12887.29 18324.85,12887.29 18324.85,12582.71 19049.86,12582.71 "/>
        </g>
        <g>
         <polygon class="fil2" points="19049.86,13622.8 18324.85,13622.8 18324.85,13318.12 19049.86,13318.12 "/>
        </g>
        <g>
         <polygon class="fil2" points="19049.86,14358.11 18324.85,14358.11 18324.85,14053.54 19049.86,14053.54 "/>
        </g>
       </g>
      </g>
      <g>
       <g>
        <g>
         <g>
          <polygon class="fil2" points="16254.54,8170.25 16254.54,8474.81 16432.15,8474.81 16432.15,8170.25 "/>
         </g>
         <g>
          <polygon class="fil2" points="16254.54,8905.69 16254.54,9210.28 16432.15,9210.28 16432.15,8905.69 "/>
         </g>
         <g>
          <polygon class="fil2" points="16254.54,9641.05 16254.54,9945.69 16432.15,9945.69 16432.15,9641.05 "/>
         </g>
         <g>
          <polygon class="fil2" points="16254.54,10376.4 16254.54,10681.06 16432.15,10681.06 16432.15,10376.4 "/>
         </g>
         <g>
          <polygon class="fil2" points="16254.54,11111.87 16254.54,11416.5 16432.15,11416.5 16432.15,11111.87 "/>
         </g>
         <g>
          <polygon class="fil2" points="16254.54,11847.31 16254.54,12151.97 16432.15,12151.97 16432.15,11847.31 "/>
         </g>
         <g>
          <polygon class="fil2" points="16254.54,12582.71 16254.54,12887.29 16432.15,12887.29 16432.15,12582.71 "/>
         </g>
         <g>
          <polygon class="fil2" points="16254.54,13318.12 16254.54,13622.8 16432.15,13622.8 16432.15,13318.12 "/>
         </g>
         <g>
          <polygon class="fil2" points="16254.54,14053.54 16254.54,14358.11 16432.15,14358.11 16432.15,14053.54 "/>
         </g>
        </g>
        <g>
         <g>
          <polygon class="fil2" points="17289.73,8170.25 17289.73,8474.81 17465.73,8474.81 17465.73,8170.25 "/>
         </g>
         <g>
          <polygon class="fil2" points="17289.73,8905.69 17289.73,9210.28 17465.73,9210.28 17465.73,8905.69 "/>
         </g>
         <g>
          <polygon class="fil2" points="17289.73,9641.05 17289.73,9945.69 17465.73,9945.69 17465.73,9641.05 "/>
         </g>
         <g>
          <polygon class="fil2" points="17289.73,10376.4 17289.73,10681.06 17465.73,10681.06 17465.73,10376.4 "/>
         </g>
         <g>
          <polygon class="fil2" points="17289.73,11111.87 17289.73,11416.5 17465.73,11416.5 17465.73,11111.87 "/>
         </g>
         <g>
          <polygon class="fil2" points="17289.73,11847.31 17289.73,12151.97 17465.73,12151.97 17465.73,11847.31 "/>
         </g>
         <g>
          <polygon class="fil2" points="17289.73,12582.71 17289.73,12887.29 17465.73,12887.29 17465.73,12582.71 "/>
         </g>
         <g>
          <polygon class="fil2" points="17289.73,13318.12 17289.73,13622.8 17465.73,13622.8 17465.73,13318.12 "/>
         </g>
         <g>
          <polygon class="fil2" points="17289.73,14053.54 17289.73,14358.11 17465.73,14358.11 17465.73,14053.54 "/>
         </g>
        </g>
        <g>
         <g>
          <polygon class="fil2" points="18324.85,8170.25 18324.85,8474.81 18489.78,8474.81 18489.78,8170.25 "/>
         </g>
         <g>
          <polygon class="fil2" points="18324.85,8905.69 18324.85,9210.28 18489.78,9210.28 18489.78,8905.69 "/>
         </g>
         <g>
          <polygon class="fil2" points="18324.85,9641.05 18324.85,9945.69 18489.78,9945.69 18489.78,9641.05 "/>
         </g>
         <g>
          <polygon class="fil2" points="18324.85,10376.4 18324.85,10681.06 18489.78,10681.06 18489.78,10376.4 "/>
         </g>
         <g>
          <polygon class="fil2" points="18324.85,11111.87 18324.85,11416.5 18489.78,11416.5 18489.78,11111.87 "/>
         </g>
         <g>
          <polygon class="fil2" points="18324.85,11847.31 18324.85,12151.97 18489.78,12151.97 18489.78,11847.31 "/>
         </g>
         <g>
          <polygon class="fil2" points="18324.85,12582.71 18324.85,12887.29 18489.78,12887.29 18489.78,12582.71 "/>
         </g>
         <g>
          <polygon class="fil2" points="18324.85,13318.12 18324.85,13622.8 18489.78,13622.8 18489.78,13318.12 "/>
         </g>
         <g>
          <polygon class="fil2" points="18324.85,14053.54 18324.85,14358.11 18489.78,14358.11 18489.78,14053.54 "/>
         </g>
        </g>
       </g>
      </g>
     </g>
    </g>
    <polygon class="fil1" points="25256.34,18402.56 20877.1,18402.56 20877.1,11493.62 25256.34,11493.62 "/>
    <g>
     <g>
      <g>
       <g>
        <polygon class="fil2" points="22293.48,13556.67 21755.07,13556.67 21755.07,12517.97 22293.48,12517.97 "/>
       </g>
       <g>
        <polygon class="fil2" points="22293.48,15096.03 21755.07,15096.03 21755.07,14057.38 22293.48,14057.38 "/>
       </g>
       <g>
        <polygon class="fil2" points="22293.48,16635.24 21755.07,16635.24 21755.07,15596.64 22293.48,15596.64 "/>
       </g>
       <g>
        <polygon class="fil2" points="22293.48,18174.61 21755.07,18174.61 21755.07,17135.96 22293.48,17135.96 "/>
       </g>
      </g>
      <g>
       <g>
        <polygon class="fil2" points="23402.67,13556.67 22864.25,13556.67 22864.25,12518.07 23402.67,12518.07 "/>
       </g>
       <g>
        <polygon class="fil2" points="23402.67,15096.03 22864.25,15096.03 22864.25,14057.38 23402.67,14057.38 "/>
       </g>
       <g>
        <polygon class="fil2" points="23402.67,16635.24 22864.25,16635.24 22864.25,15596.64 23402.67,15596.64 "/>
       </g>
       <g>
        <polygon class="fil2" points="23402.67,18174.67 22864.25,18174.67 22864.25,17136 23402.67,17136 "/>
       </g>
      </g>
      <g>
       <g>
        <polygon class="fil2" points="24511.9,13556.67 23973.55,13556.67 23973.55,12518.07 24511.9,12518.07 "/>
       </g>
       <g>
        <polygon class="fil2" points="24511.9,15096.03 23973.55,15096.03 23973.55,14057.38 24511.9,14057.38 "/>
       </g>
       <g>
        <polygon class="fil2" points="24511.9,16635.24 23973.55,16635.24 23973.55,15596.64 24511.9,15596.64 "/>
       </g>
       <g>
        <polygon class="fil2" points="24511.9,18174.67 23973.55,18174.67 23973.55,17136 24511.9,17136 "/>
       </g>
      </g>
     </g>
    </g>
    <polygon class="fil1" points="8276.82,12923.55 3973.36,12923.55 3973.36,13299.63 4075.06,13299.63 4075.06,18402.56 8138.05,18402.56 8138.05,13299.63 8276.82,13299.63 "/>
    <g>
     <g>
      <polygon class="fil2" points="7326.44,14781.47 4810.35,14781.47 4810.35,14305 7326.44,14305 "/>
     </g>
     <g>
      <polygon class="fil2" points="7326.44,15487.68 4810.35,15487.68 4810.35,15011.21 7326.44,15011.21 "/>
     </g>
     <g>
      <polygon class="fil2" points="7326.44,16193.86 4810.35,16193.86 4810.35,15717.43 7326.44,15717.43 "/>
     </g>
     <g>
      <polygon class="fil2" points="7326.44,16900.07 4810.35,16900.07 4810.35,16423.53 7326.44,16423.53 "/>
     </g>
     <g>
      <polygon class="fil2" points="7326.44,18312.5 4810.35,18312.5 4810.35,17836.02 7326.44,17836.02 "/>
     </g>
     <g>
      <polygon class="fil2" points="7326.44,17606.33 4810.35,17606.33 4810.35,17129.81 7326.44,17129.81 "/>
     </g>
     <g>
      <polygon class="fil2" points="4810.35,18388.77 4688.7,18388.77 4688.7,14246.19 4810.35,14246.19 "/>
     </g>
     <g>
      <polygon class="fil2" points="7387.32,18402.56 7265.67,18402.56 7265.67,14259.98 7387.32,14259.98 "/>
     </g>
    </g>
    <polygon class="fil4" points="11849.77,17459.94 5823.79,17459.94 5823.79,17836.02 5969.94,17836.02 5969.94,18402.56 11631.82,18402.56 11631.82,17836.02 11849.77,17836.02 "/>
    <polygon class="fil1" points="18561.35,15268.86 18561.35,11835.27 14675.71,11835.27 14675.71,15268.86 13079.98,15268.86 13079.98,18402.56 20157.05,18402.56 20157.05,15268.86 "/>
    <g>
     <g>
      <g>
       <polygon class="fil2" points="19323.7,17016.04 13913.32,17016.04 13913.32,16288.21 19323.7,16288.21 "/>
      </g>
      <g>
       <polygon class="fil2" points="19323.7,18094.65 13913.32,18094.65 13913.32,17366.82 19323.7,17366.82 "/>
      </g>
      <g>
       <g>
        <polygon class="fil2" points="17857.99,13111.59 15379,13111.59 15379,12383.71 17857.99,12383.71 "/>
       </g>
       <g>
        <polygon class="fil2" points="17857.99,14190.26 15379,14190.26 15379,13462.37 17857.99,13462.37 "/>
       </g>
       <g>
        <polygon class="fil2" points="17857.99,15268.86 15379,15268.86 15379,14541.08 17857.99,14541.08 "/>
       </g>
      </g>
      <g>
       <polygon class="fil2" points="18061.91,15346.31 15187.06,15346.31 15187.06,15191.47 18061.91,15191.47 "/>
      </g>
      <g>
       <polygon class="fil2" points="18061.91,14267.71 15187.06,14267.71 15187.06,14112.81 18061.91,14112.81 "/>
      </g>
      <g>
       <polygon class="fil2" points="18061.91,13188.98 15187.06,13188.98 15187.06,13034.14 18061.91,13034.14 "/>
      </g>
     </g>
    </g>
    <polygon class="fil4" points="21141.92,18402.56 17814.87,18402.56 17814.87,16084.65 21141.92,16084.65 "/>
   </g>
   <g>
    <path class="fil5" d="M22386.14 20109.06c0,109.56 -3902.14,198.34 -8715.63,198.34 -4813.51,0 -6826.96,-88.78 -6826.96,-198.34 0,-109.53 2013.45,-198.34 6826.96,-198.34 4813.49,0 8715.63,88.81 8715.63,198.34z"/>
    <path class="fil6" d="M9437.2 17970.39c615.97,0 1115.27,499.31 1115.27,1115.28 0,615.96 -499.3,1115.29 -1115.27,1115.29l-309.18 0 0 -2230.57 309.18 0z"/>
    <path class="fil6" d="M15259.34 17970.39c615.95,0 1115.28,499.31 1115.28,1115.28 0,615.96 -499.33,1115.29 -1115.28,1115.29l-309.19 0 0 -2230.57 309.19 0z"/>
    <path class="fil6" d="M9437.2 17970.39c615.97,0 1115.27,499.31 1115.27,1115.28 0,615.96 -499.3,1115.29 -1115.27,1115.29l-309.18 0 0 -2230.57 309.18 0z"/>
    <path class="fil6" d="M10431.64 18877.5c0,-615.91 499.33,-1115.24 1115.27,-1115.24 615.96,0 1115.26,499.33 1115.26,1115.24 0,615.96 -499.3,1115.28 -1115.26,1115.28 -615.94,0 -1115.27,-499.32 -1115.27,-1115.28z"/>
    <path class="fil6" d="M17810.16 17762.26c615.91,0 1115.22,499.33 1115.22,1115.24 0,615.96 -499.31,1115.28 -1115.22,1115.28l-309.24 0 0 -2230.52 309.24 0z"/>
    <path class="fil6" d="M16385.68 18877.5c0,-615.91 499.33,-1115.24 1115.24,-1115.24 615.96,0 1115.29,499.33 1115.29,1115.24 0,615.96 -499.33,1115.28 -1115.29,1115.28 -615.91,0 -1115.24,-499.32 -1115.24,-1115.28z"/>
    <g>
     <polygon class="fil7" points="14950.15,11798.27 20670.11,11798.27 20670.11,13773.8 14950.15,13773.8 "/>
     <polygon class="fil7" points="12662.17,18344.52 17238.14,18344.52 17238.14,13768.53 12662.17,13768.53 "/>
     <polygon class="fil8" points="17238.14,16407.96 17238.14,15705.09 12662.17,15705.09 12662.17,16407.96 "/>
     <polygon class="fil9" points="14472.81,16407.96 15427.5,16407.96 15427.5,15705.09 14472.81,15705.09 "/>
     <polygon class="fil8" points="14598.71,18344.52 15301.59,18344.52 15301.59,13768.53 14598.71,13768.53 "/>
     <polygon class="fil10" points="17238.14,18344.52 20670.11,18344.52 20670.11,13768.53 17238.14,13768.53 "/>
     <polygon class="fil9" points="20670.11,16407.96 20670.11,15705.09 17238.14,15705.09 17238.14,16407.96 "/>
     <polygon class="fil11" points="18462.9,16407.96 19417.59,16407.96 19417.59,15705.09 18462.9,15705.09 "/>
     <polygon class="fil12" points="17238.14,13773.8 20670.11,13773.8 22386.14,12068.06 18954.12,12068.06 "/>
     <polygon class="fil9" points="19291.68,18344.52 18588.81,18344.52 18588.81,13768.53 19291.68,13768.53 "/>
     <polygon class="fil11" points="18588.81,13768.53 19291.68,13768.53 20992.15,12068.06 20289.25,12068.06 "/>
     <polygon class="fil10" points="17238.14,13768.53 12662.17,13768.53 10946.18,12052.55 15522.17,12052.55 "/>
     <polygon class="fil9" points="15301.59,13768.53 14598.71,13768.53 12882.71,12052.55 13585.62,12052.55 "/>
    </g>
    <path class="fil5" d="M7063.64 19085.67l10174.5 0 0 -741.15 -10174.5 0c-121.55,0 -220.09,98.49 -220.09,220.06l0 300.98c0,121.55 98.54,220.11 220.09,220.11z"/>
    <path class="fil13" d="M7063.64 18344.52l5598.53 0 0 -4575.99 -2805.43 0c-547.62,0 -1059.53,271.9 -1366.09,725.68l-1144.41 1693.7c-184.17,272.61 -282.6,594.04 -282.6,923.05l0 1233.56z"/>
    <path class="fil14" d="M11318.48 16476.24l0 -2192.71 -1461.74 0c-377.11,0 -728.32,186.55 -939.38,499.01l-1144.35 1693.7 3545.47 0z"/>
    <polygon class="fil15" points="11987.99,13768.53 12662.17,13768.53 12662.17,18344.52 11987.99,18344.52 "/>
    <path class="fil6" d="M14898.63 17762.26c730.89,0 1323.4,592.51 1323.4,1323.41l-2646.8 0c0,-730.9 592.49,-1323.41 1323.4,-1323.41z"/>
    <path class="fil6" d="M9076.49 17762.26c730.87,0 1323.41,592.51 1323.41,1323.41l-2646.83 0c0,-730.9 592.51,-1323.41 1323.42,-1323.41z"/>
    <path class="fil16" d="M13834.91 19085.67c0,-615.97 499.32,-1115.28 1115.24,-1115.28 615.95,0 1115.28,499.31 1115.28,1115.28 0,615.96 -499.33,1115.29 -1115.28,1115.29 -615.92,0 -1115.24,-499.33 -1115.24,-1115.29z"/>
    <path class="fil14" d="M14401.41 19085.67c0,-303.09 245.67,-548.76 548.74,-548.76 303.09,0 548.76,245.67 548.76,548.76 0,303.08 -245.67,548.75 -548.76,548.75 -303.07,0 -548.74,-245.67 -548.74,-548.75z"/>
    <path class="fil16" d="M8012.75 19085.67c0,-615.97 499.31,-1115.28 1115.27,-1115.28 615.93,0 1115.26,499.31 1115.26,1115.28 0,615.96 -499.33,1115.29 -1115.26,1115.29 -615.96,0 -1115.27,-499.33 -1115.27,-1115.29z"/>
    <path class="fil14" d="M8579.26 19085.67c0,-303.09 245.67,-548.76 548.76,-548.76 303.07,0 548.75,245.67 548.75,548.76 0,303.08 -245.68,548.75 -548.75,548.75 -303.09,0 -548.76,-245.67 -548.76,-548.75z"/>
    <polygon class="fil15" points="17238.14,17989.69 17716.1,17989.69 17716.1,17534.77 17238.14,17534.77 "/>
    <polygon class="fil13" points="16760.18,17989.69 17238.14,17989.69 17238.14,17534.77 16760.18,17534.77 "/>
    <polygon class="fil15" points="20192.15,17989.69 20670.11,17989.69 20670.11,17534.77 20192.15,17534.77 "/>
    <g>
     <path class="fil15" d="M10738.78 16899.6l439.93 0c77.2,0 139.77,-62.59 139.77,-139.77l0 -100.05 -719.46 0 0 100.05c0,77.18 62.57,139.77 139.76,139.77z"/>
     <path class="fil16" d="M10738.78 16840.23l439.93 0c77.2,0 139.77,-62.59 139.77,-139.77l0 -40.68 -719.46 0 0 40.68c0,77.18 62.57,139.77 139.76,139.77z"/>
    </g>
    <path class="fil14" d="M7498.2 17762.26c0,-239.98 -194.56,-434.53 -434.56,-434.53l0 869.06c240,0 434.56,-194.55 434.56,-434.53z"/>
    <path class="fil17" d="M20670.11 18344.52l-3431.97 0c-121.55,0 -220.1,98.49 -220.1,220.06l0 300.98c0,121.55 98.55,220.11 220.1,220.11l3431.97 0c121.55,0 220.1,-98.56 220.1,-220.11l0 -300.98c0,-121.57 -98.55,-220.06 -220.1,-220.06z"/>
    <path class="fil14" d="M17634.56 18715.06c0,-86.92 -70.48,-157.46 -157.46,-157.46 -86.93,0 -157.47,70.54 -157.47,157.46 0,86.98 70.54,157.47 157.47,157.47 86.98,0 157.46,-70.49 157.46,-157.47z"/>
    <path class="fil14" d="M17905.79 18715.06c0,-43.49 -35.25,-78.73 -78.74,-78.73 -43.48,0 -78.72,35.24 -78.72,78.73 0,43.49 35.24,78.73 78.72,78.73 43.49,0 78.74,-35.24 78.74,-78.73z"/>
    <path class="fil14" d="M20273.69 18715.06c0,86.98 70.47,157.47 157.45,157.47 86.93,0 157.48,-70.49 157.48,-157.47 0,-86.92 -70.55,-157.46 -157.48,-157.46 -86.98,0 -157.45,70.54 -157.45,157.46z"/>
    <path class="fil14" d="M20002.46 18715.06c0,43.49 35.23,78.73 78.72,78.73 43.5,0 78.73,-35.24 78.73,-78.73 0,-43.49 -35.23,-78.73 -78.73,-78.73 -43.49,0 -78.72,35.24 -78.72,78.73z"/>
   </g>
   <g>
    <g>
     <line class="fil18 str0" x1="19793.11" y1="10918.62" x2="19793.11" y2= "1186.15" />
     <path class="fil18 str0" d="M19793.11 1186.15c0,-418.27 -339.09,-757.31 -757.33,-757.31"/>
     <line class="fil18 str0" x1="19035.78" y1="428.84" x2="10193.87" y2= "428.84" />
     <path class="fil18 str0" d="M10193.87 428.84c-418.24,0 -757.28,339.04 -757.28,757.31"/>
     <line class="fil18 str0" x1="9436.59" y1="1186.15" x2="9436.59" y2= "12888.88" />
     <polyline class="fil18 str0" points="10289.31,12888.88 10289.31,1881.78 18940.4,1881.78 18940.4,10918.61 "/>
     <path class="fil18 str0" d="M12776.89 1155.31c0,93.08 75.45,168.55 168.52,168.55"/>
     <line class="fil18 str0" x1="12945.41" y1="1323.86" x2="16284.27" y2= "1323.86" />
     <path class="fil18 str0" d="M16284.27 1323.86c93.07,0 168.51,-75.47 168.51,-168.55"/>
     <path class="fil18 str0" d="M16452.78 1155.31c0,-93.08 -75.44,-168.52 -168.51,-168.52"/>
     <line class="fil18 str0" x1="16284.27" y1="986.79" x2="12945.41" y2= "986.79" />
     <path class="fil18 str0" d="M12945.41 986.79c-93.07,0 -168.52,75.44 -168.52,168.52"/>
     <path class="fil18 str0" d="M17358.72 1155.31c0,93.08 -75.46,168.55 -168.52,168.55 -93.07,0 -168.53,-75.47 -168.53,-168.55 0,-93.08 75.46,-168.52 168.53,-168.52 93.06,0 168.52,75.44 168.52,168.52z"/>
    </g>
    <g>
     <line class="fil18 str0" x1="26109.05" y1="18402.56" x2="26109.05" y2= "5445.91" />
     <line class="fil18 str0" x1="26109.05" y1="15178.35" x2="26109.05" y2= "5445.91" />
     <path class="fil18 str0" d="M26109.05 5445.91c0,-418.27 -339.05,-757.31 -757.33,-757.31"/>
     <line class="fil18 str0" x1="25351.72" y1="4688.6" x2="20670.15" y2= "4688.6" />
     <polyline class="fil18 str0" points="20670.15,6141.55 25256.34,6141.55 25256.34,18402.56 "/>
     <line class="fil18 str0" x1="20670.15" y1="5583.59" x2="22600.2" y2= "5583.59" />
     <path class="fil18 str0" d="M22600.2 5583.59c93.08,0 168.52,-75.46 168.52,-168.52"/>
     <path class="fil18 str0" d="M22768.72 5415.07c0,-93.08 -75.44,-168.53 -168.52,-168.53"/>
     <line class="fil18 str0" x1="22600.2" y1="5246.54" x2="20670.15" y2= "5246.54" />
     <path class="fil18 str0" d="M23674.66 5415.07c0,93.06 -75.44,168.52 -168.52,168.52 -93.08,0 -168.58,-75.46 -168.58,-168.52 0,-93.08 75.5,-168.53 168.58,-168.53 93.08,0 168.52,75.45 168.52,168.53z"/>
    </g>
    <g>
     <line class="fil18 str0" x1="3120.66" y1="18402.56" x2="3120.66" y2= "6583.57" />
     <line class="fil18 str0" x1="3120.66" y1="15178.35" x2="3120.66" y2= "6583.57" />
     <path class="fil18 str0" d="M3120.66 6583.57c0,-418.24 339.06,-757.31 757.3,-757.31"/>
     <line class="fil18 str0" x1="3877.96" y1="5826.26" x2="8559.54" y2= "5826.26" />
     <polyline class="fil18 str0" points="8559.57,7279.22 3973.36,7279.22 3973.36,18402.56 "/>
     <line class="fil18 str0" x1="8559.54" y1="6721.3" x2="6629.48" y2= "6721.3" />
     <path class="fil18 str0" d="M6629.48 6721.3c-93.08,0 -168.54,-75.46 -168.54,-168.55"/>
     <path class="fil18 str0" d="M6460.94 6552.75c0,-93.08 75.46,-168.54 168.54,-168.54"/>
     <line class="fil18 str0" x1="6629.48" y1="6384.21" x2="8559.54" y2= "6384.21" />
     <path class="fil18 str0" d="M5555.04 6552.75c0,93.09 75.44,168.55 168.53,168.55 93.06,0 168.53,-75.46 168.53,-168.55 0,-93.08 -75.47,-168.54 -168.53,-168.54 -93.09,0 -168.53,75.46 -168.53,168.54z"/>
    </g>
   </g>
   <g>
    <g>
     <g>
      <path class="fil18 str1" d="M22386.14 9933.48c0,0 -20.9,-30.83 -61.27,-84.88"/>
      <path class="fil18 str2" d="M22194.87 9682.43c-592.04,-725.66 -2496.16,-2685.28 -4836.15,-1253.25 -2833.17,1733.89 -2591.44,-2044.97 -4255.46,-2044.97 -2381.59,0 -1007.56,4548.12 -6625.87,4835.9"/>
      <path class="fil18 str1" d="M6371.3 11225c-34.67,1.43 -69.63,2.68 -104.85,3.78"/>
     </g>
    </g>
    <g>
     <path class="fil5" d="M22630.42 9933.48c0,-134.93 -109.36,-244.32 -244.28,-244.32 -134.97,0 -244.33,109.39 -244.33,244.32 0,134.95 109.36,244.31 244.33,244.31 134.92,0 244.28,-109.36 244.28,-244.31z"/>
     <path class="fil13" d="M22850.89 8157.84c-256.68,-256.7 -672.88,-256.7 -929.55,0 -205.66,205.65 -246.14,513.52 -122.27,759.89l-0.41 0.19 2.61 4.54c10.4,20.28 21.77,40.16 34.43,59.5l550.44 951.52 550.28 -951.37c12.72,-19.39 24.09,-39.34 34.53,-59.68l2.62 -4.51 -0.47 -0.19c123.92,-246.37 83.45,-554.24 -122.21,-759.89zm-464.75 774.86l0 0c-171.28,0 -310.11,-138.84 -310.11,-310.08 0,-171.24 138.83,-310.05 310.11,-310.05 171.18,0 310.05,138.81 310.05,310.05 0,171.24 -138.87,310.08 -310.05,310.08z"/>
    </g>
    <g>
     <path class="fil5" d="M13127.02 6384.21c0,-134.91 -109.36,-244.3 -244.31,-244.3 -134.91,0 -244.32,109.39 -244.32,244.3 0,134.92 109.41,244.31 244.32,244.31 134.95,0 244.31,-109.39 244.31,-244.31z"/>
     <path class="fil13" d="M13347.52 4608.57c-256.71,-256.7 -672.91,-256.7 -929.58,0 -205.66,205.65 -246.1,513.53 -122.25,759.89l-0.4 0.21 2.6 4.53c10.41,20.28 21.78,40.15 34.41,59.46l550.41 951.55 550.35 -951.37c12.68,-19.39 24.07,-39.36 34.51,-59.7l2.6 -4.47 -0.42 -0.21c123.87,-246.36 83.43,-554.24 -122.23,-759.89zm-464.81 774.85l0 0c-171.24,0 -310.05,-138.83 -310.05,-310.06 0,-171.24 138.81,-310.06 310.05,-310.06 171.24,0 310.09,138.82 310.09,310.06 0,171.23 -138.85,310.06 -310.09,310.06z"/>
    </g>
    <g>
     <path class="fil5" d="M6510.77 11228.78c0,-134.92 -109.38,-244.3 -244.32,-244.3 -134.92,0 -244.31,109.38 -244.31,244.3 0,134.93 109.39,244.32 244.31,244.32 134.94,0 244.32,-109.39 244.32,-244.32z"/>
     <path class="fil13" d="M6731.25 9453.13c-256.7,-256.68 -672.89,-256.68 -929.58,0 -205.66,205.66 -246.1,513.54 -122.24,759.9l-0.41 0.2 2.61 4.54c10.4,20.26 21.78,40.16 34.4,59.47l550.42 951.54 550.33 -951.36c12.69,-19.39 24.08,-39.34 34.52,-59.68l2.6 -4.51 -0.4 -0.2c123.85,-246.36 83.41,-554.24 -122.25,-759.9zm-464.8 774.85l0 0c-171.24,0 -310.05,-138.81 -310.05,-310.05 0,-171.24 138.81,-310.05 310.05,-310.05 171.24,0 310.08,138.81 310.08,310.05 0,171.24 -138.84,310.05 -310.08,310.05z"/>
    </g>
   </g>
   <g>
    <g>
     <line class="fil18 str0" x1="22346.38" y1="1885.58" x2="22346.38" y2= "2592.33" />
     <line class="fil18 str0" x1="22699.78" y1="2238.94" x2="21993" y2= "2238.94" />
    </g>
    <g>
     <line class="fil18 str0" x1="23642.65" y1="1594.73" x2="23642.65" y2= "2176.4" />
     <line class="fil18 str0" x1="23933.49" y1="1885.58" x2="23351.8" y2= "1885.58" />
    </g>
    <g>
     <line class="fil18 str0" x1="23158.07" y1="786.17" x2="23158.07" y2= "1173.6" />
     <line class="fil18 str0" x1="23351.8" y1="979.88" x2="22964.39" y2= "979.88" />
    </g>
    <g>
     <line class="fil18 str0" x1="22699.78" y1="2999.91" x2="22699.78" y2= "3238.77" />
     <line class="fil18 str0" x1="22819.19" y1="3119.33" x2="22580.32" y2= "3119.33" />
    </g>
   </g>
   <g>
    <g>
     <line class="fil18 str0" x1="23624.21" y1="15136.75" x2="22917.42" y2= "15136.75" />
     <line class="fil18 str0" x1="23270.82" y1="15490.19" x2="23270.82" y2= "14783.42" />
    </g>
    <g>
     <line class="fil18 str0" x1="23658.21" y1="16433.02" x2="23270.82" y2= "16433.02" />
     <line class="fil18 str0" x1="23464.49" y1="16626.74" x2="23464.49" y2= "16239.34" />
    </g>
    <g>
     <line class="fil18 str0" x1="22350.13" y1="15609.6" x2="22111.28" y2= "15609.6" />
     <line class="fil18 str0" x1="22230.72" y1="15728.99" x2="22230.72" y2= "15490.19" />
    </g>
   </g>
   <g>
    <g>
     <line class="fil18 str0" x1="6177.73" y1="15522.83" x2="6177.73" y2= "14816.04" />
     <line class="fil18 str0" x1="5824.33" y1="15169.43" x2="6531.12" y2= "15169.43" />
    </g>
    <g>
     <line class="fil18 str0" x1="4881.48" y1="15556.83" x2="4881.48" y2= "15169.43" />
     <line class="fil18 str0" x1="4687.77" y1="15363.17" x2="5075.2" y2= "15363.17" />
    </g>
    <g>
     <line class="fil18 str0" x1="5704.91" y1="14248.81" x2="5704.91" y2= "14009.95" />
     <line class="fil18 str0" x1="5585.49" y1="14129.35" x2="5824.33" y2= "14129.35" />
    </g>
   </g>
   <g>
    <g>
     <line class="fil18 str0" x1="5723.57" y1="3138.89" x2="4819.83" y2= "3138.89" />
     <line class="fil18 str0" x1="5271.69" y1="3590.75" x2="5271.69" y2= "2686.99" />
    </g>
    <g>
     <line class="fil18 str0" x1="5995.74" y1="4416.44" x2="5451.42" y2= "4416.44" />
     <line class="fil18 str0" x1="5723.57" y1="4688.6" x2="5723.57" y2= "4144.29" />
    </g>
    <g>
     <line class="fil18 str0" x1="6843.9" y1="3950.6" x2="6456.5" y2= "3950.6" />
     <line class="fil18 str0" x1="6650.19" y1="4144.29" x2="6650.19" y2= "3756.89" />
    </g>
    <g>
     <line class="fil18 str0" x1="4510.72" y1="3950.6" x2="4271.87" y2= "3950.6" />
     <line class="fil18 str0" x1="4391.29" y1="4070.02" x2="4391.29" y2= "3831.16" />
    </g>
    <g>
     <line class="fil18 str0" x1="6456.5" y1="2751.58" x2="6217.63" y2= "2751.58" />
     <line class="fil18 str0" x1="6337.06" y1="2870.98" x2="6337.06" y2= "2632.15" />
    </g>
   </g>
  </g>
 </g>
</svg>
