<svg xmlns="http://www.w3.org/2000/svg" xmlns:xlink="http://www.w3.org/1999/xlink" viewBox="0 0 441.94 420.04"><defs><style>.cls-1{isolation:isolate;}.cls-2{fill:#c8c8c8;}.cls-10,.cls-13,.cls-2{mix-blend-mode:multiply;}.cls-3{fill:url(#linear-gradient);}.cls-4{fill:url(#linear-gradient-2);}.cls-5{fill:url(#linear-gradient-3);}.cls-6{fill:url(#linear-gradient-4);}.cls-12,.cls-58,.cls-7,.cls-9{fill:none;stroke-miterlimit:10;}.cls-12,.cls-7,.cls-9{stroke:#fff9f7;}.cls-7{stroke-width:0.65px;}.cls-8{fill:#ffae2c;}.cls-9{stroke-width:0.67px;}.cls-11{fill:#00875b;}.cls-12{stroke-width:0.44px;}.cls-13{fill:#ff8788;opacity:0.71;}.cls-14{fill:url(#linear-gradient-5);}.cls-15{fill:#959595;}.cls-16{fill:url(#linear-gradient-6);}.cls-17,.cls-18,.cls-25,.cls-28,.cls-31,.cls-44{fill:#fff;}.cls-18{opacity:0.17;}.cls-19{fill:#333;}.cls-20{fill:url(#linear-gradient-7);}.cls-21{fill:url(#linear-gradient-8);}.cls-22{fill:url(#linear-gradient-9);}.cls-23{fill:url(#linear-gradient-10);}.cls-24{fill:url(#linear-gradient-11);}.cls-25,.cls-28,.cls-31{font-size:4.32px;}.cls-25,.cls-28,.cls-31,.cls-39,.cls-49,.cls-59{font-family:Montserrat-Light, Montserrat;font-weight:300;}.cls-25,.cls-32{letter-spacing:0.07em;}.cls-26{letter-spacing:0.06em;}.cls-27{letter-spacing:0.08em;}.cls-28{letter-spacing:0.05em;}.cls-29{letter-spacing:0.07em;}.cls-30{letter-spacing:0.09em;}.cls-31{letter-spacing:0.06em;}.cls-33{letter-spacing:0.07em;}.cls-34{letter-spacing:0.06em;}.cls-35{font-size:7.73px;fill:#453ae9;font-family:Montserrat-SemiBold, Montserrat;font-weight:600;}.cls-35,.cls-42{letter-spacing:0.2em;}.cls-36{letter-spacing:0.2em;}.cls-37{letter-spacing:0.19em;}.cls-38{letter-spacing:0.16em;}.cls-39{letter-spacing:0.19em;}.cls-40{letter-spacing:0.2em;}.cls-41{letter-spacing:0.17em;}.cls-43{fill:url(#linear-gradient-12);}.cls-44{font-size:3.65px;font-family:Montserrat-Regular, Montserrat;letter-spacing:0.2em;}.cls-45{letter-spacing:0.17em;}.cls-46{letter-spacing:0.19em;}.cls-47{letter-spacing:0.18em;}.cls-48{letter-spacing:0.2em;}.cls-49{font-size:3.16px;letter-spacing:0.08em;}.cls-50{letter-spacing:0.06em;}.cls-51{letter-spacing:0.08em;}.cls-52{letter-spacing:0.06em;}.cls-53{letter-spacing:0.06em;}.cls-54{letter-spacing:0.07em;}.cls-55{letter-spacing:0.07em;}.cls-56{letter-spacing:0.06em;}.cls-57{fill:#ff8586;}.cls-58{stroke:#453ae9;stroke-width:0.6px;}.cls-59{font-size:2.64px;letter-spacing:0.07em;}.cls-60{letter-spacing:0.08em;}.cls-61{letter-spacing:0.06em;}.cls-62{letter-spacing:0.07em;}.cls-63{letter-spacing:0.09em;}.cls-64{letter-spacing:0.08em;}.cls-65{letter-spacing:0.06em;}.cls-66{letter-spacing:0.08em;}.cls-67{letter-spacing:0.08em;}.cls-68{letter-spacing:0.07em;}.cls-69{letter-spacing:0.06em;}.cls-70{letter-spacing:0.07em;}.cls-71{fill:#ffb2b6;}.cls-72{fill:url(#linear-gradient-13);}.cls-73{fill:#00aee0;}.cls-74{fill:#452b2c;}</style><linearGradient id="linear-gradient" x1="368.6" y1="111.92" x2="463.12" y2="111.92" gradientUnits="userSpaceOnUse"><stop offset="0" stop-color="#453ae9"/><stop offset="0.21" stop-color="#453fe9"/><stop offset="0.47" stop-color="#434ee8"/><stop offset="0.76" stop-color="#4167e7"/><stop offset="1" stop-color="#3f82e6"/></linearGradient><linearGradient id="linear-gradient-2" x1="65.26" y1="69.25" x2="159.78" y2="69.25" gradientTransform="matrix(-1, 0, 0, 1, 206.38, 0)" xlink:href="#linear-gradient"/><linearGradient id="linear-gradient-3" x1="33.18" y1="203.55" x2="103.26" y2="203.55" gradientTransform="matrix(-1, 0, 0, 1, 124.44, 0)" xlink:href="#linear-gradient"/><linearGradient id="linear-gradient-4" x1="26.55" y1="372.14" x2="190.29" y2="372.14" gradientTransform="matrix(0.97, -0.24, 0.24, 0.97, -80.54, 36.88)" xlink:href="#linear-gradient"/><linearGradient id="linear-gradient-5" x1="228.97" y1="57.24" x2="290.43" y2="57.24" xlink:href="#linear-gradient"/><linearGradient id="linear-gradient-6" x1="75.22" y1="261.61" x2="423.55" y2="261.61" gradientTransform="matrix(0.89, 0.12, -0.11, 0.99, 59.63, -22.88)" gradientUnits="userSpaceOnUse"><stop offset="0.01" stop-color="#4d4d4d"/><stop offset="1" stop-color="#333"/></linearGradient><linearGradient id="linear-gradient-7" x1="198.03" y1="217.68" x2="298.6" y2="217.68" gradientTransform="translate(32.39 -32.16) rotate(7.93)" gradientUnits="userSpaceOnUse"><stop offset="0" stop-color="#ffada6"/><stop offset="0.24" stop-color="#ffb2ab"/><stop offset="0.53" stop-color="#ffc1b9"/><stop offset="0.85" stop-color="#ffdacf"/><stop offset="0.99" stop-color="#ffe7db"/></linearGradient><linearGradient id="linear-gradient-8" x1="200.67" y1="236.64" x2="301.24" y2="236.64" gradientTransform="translate(35.03 -32.35) rotate(7.93)" xlink:href="#linear-gradient-7"/><linearGradient id="linear-gradient-9" x1="203.31" y1="255.61" x2="303.88" y2="255.61" gradientTransform="translate(37.67 -32.53) rotate(7.93)" xlink:href="#linear-gradient-7"/><linearGradient id="linear-gradient-10" x1="205.95" y1="274.57" x2="306.52" y2="274.57" gradientTransform="translate(40.31 -32.71) rotate(7.93)" xlink:href="#linear-gradient-7"/><linearGradient id="linear-gradient-11" x1="208.51" y1="292.98" x2="309.09" y2="292.98" gradientTransform="translate(42.87 -32.89) rotate(7.93)" xlink:href="#linear-gradient-7"/><linearGradient id="linear-gradient-12" x1="251.02" y1="336.5" x2="270.8" y2="354.4" gradientTransform="translate(52.02 -33.9) rotate(8.15)" xlink:href="#linear-gradient"/><linearGradient id="linear-gradient-13" x1="325.14" y1="352.42" x2="321.64" y2="434.92" xlink:href="#linear-gradient"/></defs><title>registration</title><g class="cls-1"><g id="OBJECTS"><path class="cls-2" d="M406.32,398.45c-2.32-8.12-56.36.5-124.83,9.27s-123.61,18.84-123.14,22.49,43.84,5.56,112.32-3.21S407.33,402,406.32,398.45Z" transform="translate(-21.18 -30.33)"/><path class="cls-2" d="M356.55,439.43c-.7-6.67-17.38-4.56-38.51-3.59s-38.16,4.15-38,7.1,13.5,8.29,34.63,7.32S356.85,442.34,356.55,439.43Z" transform="translate(-21.18 -30.33)"/><path class="cls-3" d="M369.82,128.62c-3.27-7.27.27-16.85,7.48-20.26s16.85,0,20.4,7.09a16.92,16.92,0,0,1,32.46-6.21c-1-6.82,4.44-13.65,11.17-15.08s14,2,17.91,7.69S464,115,462.31,121.66c-.71,2.85-2,5.8-4.56,7.24-2,1.12-4.41,1.12-6.7,1.1" transform="translate(-21.18 -30.33)"/><path class="cls-4" d="M139.89,86c3.27-7.28-.27-16.86-7.48-20.26s-16.85-.06-20.39,7.09a16.92,16.92,0,0,0-32.47-6.22c1-6.81-4.44-13.64-11.17-15.08s-14,2-17.9,7.7S45.76,72.31,47.41,79c.7,2.85,2,5.8,4.55,7.24,2,1.12,4.41,1.13,6.7,1.1" transform="translate(-21.18 -30.33)"/><path class="cls-5" d="M90.36,215.93a11.43,11.43,0,0,0-20.67-9.76,12.94,12.94,0,0,0-10.19-12,12.93,12.93,0,0,0-13.89,7.38c.73-5.06-3.29-10.12-8.28-11.18s-10.37,1.5-13.28,5.7a18.34,18.34,0,0,0-2.27,14.69c.52,2.11,1.48,4.3,3.37,5.37a9.83,9.83,0,0,0,5,.81" transform="translate(-21.18 -30.33)"/><path class="cls-6" d="M184.64,402.49c.56,7.15-8.1,12.15-15.13,10.77s-12.46-6.82-17.45-12-10.49-10.54-17.55-11.78c-11.62-2-22.53,7.9-34.3,7.05S80.5,384.94,73.7,375.41s-16-19.77-27.7-18.81c-4.26.35-8.31,2.24-12.59,2.37s-9.24-2.58-9.19-6.86,4.57-6.67,8.44-8.25l34.14-14c12.69-5.2,27.17-10.41,39.67-4.75,10.91,4.93,17.5,17.13,28.81,21,14.86,5.14,32.1-6,46.54.26,10.88,4.68,15.87,18,14.59,29.78S189,398.57,183,408.77" transform="translate(-21.18 -30.33)"/><path class="cls-7" d="M25.55,353.35c16.23-9,43.67-7.86,60.93-1.07,10.81,4.26,20.59,11.52,32.06,13.37,9.94,1.6,20-1.06,30.11-.87,16.33.31,33.36,12,43,25.19" transform="translate(-21.18 -30.33)"/><path class="cls-7" d="M122.62,365.88s-7.87-36-23.93-42.8" transform="translate(-21.18 -30.33)"/><path class="cls-7" d="M62.74,347.31S61,356.11,46,356.6" transform="translate(-21.18 -30.33)"/><path class="cls-7" d="M165.82,369.36s2-17.14-11.35-22" transform="translate(-21.18 -30.33)"/><path class="cls-7" d="M179.68,377.53s-10.53,17.41-32,19.15" transform="translate(-21.18 -30.33)"/><path class="cls-7" d="M86.79,322.9s13.36,9,20.52,39.83" transform="translate(-21.18 -30.33)"/><path class="cls-7" d="M118.54,365.65s-16,21.12-34.68,21.62" transform="translate(-21.18 -30.33)"/><path class="cls-7" d="M63.41,363.4s19.78-.94,25.49-9.55" transform="translate(-21.18 -30.33)"/><path class="cls-7" d="M39,341.15s3.75-2,9.88,5.3" transform="translate(-21.18 -30.33)"/><path class="cls-7" d="M60.49,332.58s6.32,3.32,9.37,14.84" transform="translate(-21.18 -30.33)"/><path class="cls-7" d="M134.51,389.51s29-2.05,26.56-22.4" transform="translate(-21.18 -30.33)"/><path class="cls-7" d="M135.28,346.16s8.54,7.62,3.86,17.88" transform="translate(-21.18 -30.33)"/><path class="cls-7" d="M178.65,345.64s9.9,18.73,5.45,34.22" transform="translate(-21.18 -30.33)"/><path class="cls-8" d="M332.5,346.9c-6.8-3-7.14-13.35-2.43-19.1s12.32-8.05,19.47-10.09,14.76-4.43,19.35-10.28c7.54-9.63,3.8-24.46,10.34-34.8s20.25-12.34,32.28-13.89,25.92-5,30.75-16.12c1.76-4.06,2-8.69,4-12.66s6.87-7.19,10.76-5.05,3.86,7.44,3.42,11.76q-2,19-3.91,38c-1.46,14.15-3.78,29.93-15.07,38.58-9.84,7.56-24.21,7.61-33.32,16-12,11.07-10.25,32.25-23,42.41-9.6,7.66-24.22,5.7-34.36-1.23S334,352.77,327.59,342.28" transform="translate(-21.18 -30.33)"/><path class="cls-9" d="M455.23,225.53c.26,19.22-14.18,43.75-28.83,56.21-9.17,7.8-20.59,13.18-27.89,22.76-6.33,8.3-8.84,18.84-13.94,27.95-8.27,14.76-27.28,24.62-44,27" transform="translate(-21.18 -30.33)"/><path class="cls-9" d="M396.3,308.12s36.78,10.42,50.83-.94" transform="translate(-21.18 -30.33)"/><path class="cls-9" d="M442.57,262.47s-7.21-5.89-.31-19.85" transform="translate(-21.18 -30.33)"/><path class="cls-9" d="M372,345.89s14.69,10.21,25.7.41" transform="translate(-21.18 -30.33)"/><path class="cls-9" d="M357.75,354.57S347,336.43,355.88,316" transform="translate(-21.18 -30.33)"/><path class="cls-9" d="M453.11,296.39s-14.76,7.81-46.44-.72" transform="translate(-21.18 -30.33)"/><path class="cls-9" d="M398.51,304.5s-11.47-25-2.8-42.28" transform="translate(-21.18 -30.33)"/><path class="cls-9" d="M427.52,255.21s-8.8,18.54-3.73,28" transform="translate(-21.18 -30.33)"/><path class="cls-9" d="M459.8,243.78s0,4.39-9.67,6.43" transform="translate(-21.18 -30.33)"/><path class="cls-9" d="M457.12,267.61S451,271.77,439,268.92" transform="translate(-21.18 -30.33)"/><path class="cls-9" d="M368.89,307.43s-12.32,27.52,7.48,35.22" transform="translate(-21.18 -30.33)"/><path class="cls-9" d="M408.13,329.33S397,333.4,389.9,324.12" transform="translate(-21.18 -30.33)"/><path class="cls-9" d="M387.4,369.22s-22-.11-33.95-11.75" transform="translate(-21.18 -30.33)"/><g class="cls-10"><path class="cls-11" d="M165.35,369.23c-2.06,4.51-8.57,4.39-12,1s-4.7-8.61-5.78-13.51-2.35-10.14-5.89-13.44c-5.83-5.43-15.23-3.38-21.53-8.15S113,321,112.32,312.82s-2.39-17.7-9.23-21.34c-2.5-1.33-5.4-1.65-7.83-3.12s-4.31-4.9-2.86-7.45,4.77-2.37,7.47-1.93l23.74,3.91c8.83,1.46,18.66,3.56,23.77,11.48,4.46,6.91,4.08,16.64,9.11,23.08,6.6,8.47,19.93,8,25.94,17,4.53,6.75,2.88,16.58-1.75,23.21s-11.6,10.79-18.36,14.76" transform="translate(-21.18 -30.33)"/><path class="cls-12" d="M92.73,282.13c12.06.46,27,11.05,34.43,21.38,4.63,6.47,7.68,14.38,13.48,19.64,5,4.55,11.57,6.6,17.13,10.36,9,6.08,14.67,19.28,15.66,30.7" transform="translate(-21.18 -30.33)"/><path class="cls-12" d="M111.74,309.68s10.86,5.83,20.35,1.94" transform="translate(-21.18 -30.33)"/><path class="cls-12" d="M155.74,333s-28.64,5.27-39-1.48" transform="translate(-21.18 -30.33)"/><path class="cls-12" d="M115.54,291.93s-3.9,4.68-12.45-.45" transform="translate(-21.18 -30.33)"/><path class="cls-12" d="M165.85,342.47s6.81-9.61,1-17.38" transform="translate(-21.18 -30.33)"/><path class="cls-12" d="M170.89,352.4s-11.69,6.68-24.26,0" transform="translate(-21.18 -30.33)"/><path class="cls-12" d="M137.11,285.92s4.48,10.24-1.77,31.41" transform="translate(-21.18 -30.33)"/><path class="cls-12" d="M104.31,279.64s2.75.16,3.76,6.76" transform="translate(-21.18 -30.33)"/><path class="cls-12" d="M119.18,282.25s2.43,4.28.3,12.32" transform="translate(-21.18 -30.33)"/><path class="cls-12" d="M141.64,343.29s16.91,9.25,22.3-3.9" transform="translate(-21.18 -30.33)"/><path class="cls-12" d="M156.49,317.45s2.24,7.68-3.79,12.17" transform="translate(-21.18 -30.33)"/><path class="cls-12" d="M180.91,332.81s-.69,14.87-8.33,22.59" transform="translate(-21.18 -30.33)"/></g><g class="cls-10"><path class="cls-11" d="M335.13,305.71c-4.94-.37-7.09-6.51-5.13-10.94s6.44-7.4,10.67-10.11,8.69-5.73,10.56-10.19c3.07-7.35-2.11-15.46.17-23s10.76-11.61,18.23-15,15.78-8.38,16.82-16.06c.37-2.81-.32-5.64.21-8.43s3.09-5.74,6-5.27,3.88,3.66,4.4,6.34q2.28,11.82,4.57,23.63c1.7,8.78,3.14,18.73-2.52,26.27-4.93,6.58-14.19,9.6-18.49,16.55-5.65,9.13-.6,21.48-6.92,30.22-4.76,6.59-14.55,8.46-22.37,6.41S337.17,308.93,331.1,304" transform="translate(-21.18 -30.33)"/><path class="cls-12" d="M391.62,207.38c3.75,11.48-1,29.19-8.1,39.71-4.46,6.59-10.82,12.19-13.74,19.46-2.53,6.29-2.19,13.14-3.78,19.66-2.57,10.57-13,20.44-23.36,25.33" transform="translate(-21.18 -30.33)"/><path class="cls-12" d="M372.37,234.77s-1.69,12.21,5.25,19.76" transform="translate(-21.18 -30.33)"/><path class="cls-12" d="M365.8,284.12s-14.88-25-12.12-37.06" transform="translate(-21.18 -30.33)"/><path class="cls-12" d="M390.34,232.17s-5.74-2-3.89-11.83" transform="translate(-21.18 -30.33)"/><path class="cls-12" d="M360.4,296.89S371.77,300,377,291.78" transform="translate(-21.18 -30.33)"/><path class="cls-12" d="M352.83,305.06s-10.31-8.64-8.39-22.76" transform="translate(-21.18 -30.33)"/><path class="cls-12" d="M403.46,250.32s-8,7.75-30.07,9.23" transform="translate(-21.18 -30.33)"/><path class="cls-12" d="M398,217.38s.81,2.63-5,5.87" transform="translate(-21.18 -30.33)"/><path class="cls-12" d="M400.69,232.23s-3.17,3.76-11.46,4.56" transform="translate(-21.18 -30.33)"/><path class="cls-12" d="M351.23,274.47s-2.81,19.07,11.39,19.56" transform="translate(-21.18 -30.33)"/><path class="cls-12" d="M380.61,279.43s-6.42,4.77-12.72.67" transform="translate(-21.18 -30.33)"/><path class="cls-12" d="M374.68,307.67s-14.18,4.51-24.07,0" transform="translate(-21.18 -30.33)"/></g><ellipse class="cls-13" cx="310.82" cy="62" rx="62.33" ry="62"/><g class="cls-10"><path class="cls-14" d="M229.77,68.11a10,10,0,0,1,18.12-8.57,11,11,0,0,1,21.12-4c-.64-4.43,2.88-8.87,7.26-9.81s9.1,1.33,11.64,5a16.08,16.08,0,0,1,2,12.88c-.46,1.85-1.3,3.77-3,4.7a8.59,8.59,0,0,1-4.36.72" transform="translate(-21.18 -30.33)"/></g><path class="cls-15" d="M166.51,420.07l-37.21-277A9,9,0,0,1,137,133L330.11,107a9,9,0,0,1,10.11,7.72l37.21,277a9,9,0,0,1-7.72,10.12L176.62,427.79A9,9,0,0,1,166.51,420.07Z" transform="translate(-21.18 -30.33)"/><rect class="cls-16" x="106.17" y="162.87" width="294.39" height="209.06" rx="9" transform="translate(463.49 -49.63) rotate(82.35)"/><rect class="cls-17" x="127.12" y="184.91" width="252.49" height="165" transform="translate(463.49 -49.63) rotate(82.35)"/><polygon class="cls-18" points="241.56 386.51 183.39 393.77 223.03 88.24 281.21 80.98 241.56 386.51"/><path class="cls-19" d="M231.39,135.68a3,3,0,1,1,2.86-3.37A3.14,3.14,0,0,1,231.39,135.68Z" transform="translate(-21.18 -30.33)"/><rect class="cls-20" x="197.63" y="212.33" width="101.37" height="10.7" rx="5.09" transform="translate(-48.82 5.99) rotate(-7.93)"/><rect class="cls-21" x="200.27" y="231.29" width="101.37" height="10.7" rx="5.09" transform="translate(-51.41 6.53) rotate(-7.93)"/><rect class="cls-22" x="202.91" y="250.26" width="101.37" height="10.7" rx="5.09" transform="translate(-54 7.08) rotate(-7.93)"/><rect class="cls-23" x="205.55" y="269.22" width="101.37" height="10.7" rx="5.09" transform="translate(-56.59 7.62) rotate(-7.93)"/><rect class="cls-24" x="208.11" y="287.63" width="101.37" height="10.7" rx="5.09" transform="translate(-59.1 8.15) rotate(-7.93)"/><text class="cls-25" transform="translate(181.44 195.29) rotate(-7.93)">Name</text><text class="cls-25" transform="translate(184.05 214.03) rotate(-7.93)">Email ad<tspan class="cls-26" x="21.39" y="0">r</tspan><tspan class="cls-27" x="23.35" y="0">ess</tspan></text><text class="cls-28" transform="translate(186.66 232.76) rotate(-7.93)">C<tspan class="cls-29" x="3.31" y="0">ount</tspan><tspan class="cls-30" x="14.79" y="0">r</tspan><tspan class="cls-27" x="16.88" y="0">y</tspan></text><text class="cls-25" transform="translate(189.32 251.9) rotate(-7.93)">Phone</text><text class="cls-31" transform="translate(191.87 270.22) rotate(-7.93)">P<tspan class="cls-32" x="3.35" y="0">as</tspan><tspan class="cls-33" x="8.57" y="0">s</tspan><tspan class="cls-34" x="10.92" y="0">w</tspan><tspan class="cls-32" x="14.9" y="0">o</tspan><tspan class="cls-26" x="17.9" y="0">r</tspan><tspan class="cls-32" x="19.86" y="0">d</tspan></text><text class="cls-35" transform="translate(157.76 153.51) rotate(-7.82)">ONLINE R<tspan class="cls-36" x="51.48" y="0">E</tspan><tspan x="58.19" y="0">GI</tspan><tspan class="cls-37" x="69.72" y="0">S</tspan><tspan x="76.05" y="0">TR</tspan><tspan class="cls-38" x="89.46" y="0">A</tspan><tspan x="96.52" y="0">TION</tspan><tspan class="cls-39"><tspan x="36.63" y="16.76">C</tspan><tspan class="cls-40" x="43.6" y="16.76">ONCE</tspan><tspan class="cls-41" x="73.27" y="16.76">P</tspan><tspan class="cls-42" x="80.08" y="16.76">T</tspan></tspan></text><rect class="cls-43" x="232.65" y="341.74" width="62.7" height="13.01" transform="translate(-67.86 10.6) rotate(-8.15)"/><text class="cls-44" transform="translate(221.39 322.51) rotate(-8.15)">CRE<tspan class="cls-45" x="9.88" y="0">A</tspan><tspan x="13.1" y="0">TE </tspan><tspan class="cls-46" x="20.78" y="0">A</tspan><tspan class="cls-47" x="24.08" y="0">CC</tspan><tspan class="cls-48" x="30.67" y="0">OUNT</tspan></text><text class="cls-49" transform="translate(216.36 340.91) rotate(-8.15)">Al<tspan class="cls-50" x="3.52" y="0">re</tspan><tspan class="cls-51" x="7.03" y="0">ady h</tspan><tspan class="cls-52" x="16.79" y="0">a</tspan><tspan class="cls-53" x="18.83" y="0">v</tspan><tspan x="20.69" y="0">e an a</tspan><tspan class="cls-54" x="31.42" y="0">cc</tspan><tspan class="cls-55" x="35.34" y="0">oun</tspan><tspan class="cls-56" x="42.24" y="0">t</tspan><tspan x="43.67" y="0">? </tspan><tspan class="cls-57" x="46.73" y="0">Sing in</tspan></text><rect class="cls-58" x="202.31" y="328.06" width="3.3" height="3.3" transform="translate(-65.85 1.9) rotate(-8.15)"/><text class="cls-59" transform="translate(191.25 298.96) rotate(-8.15)">L<tspan class="cls-60" x="1.72" y="0">o</tspan><tspan class="cls-61" x="3.56" y="0">r</tspan><tspan class="cls-62" x="4.76" y="0">em ipsum dolor sit ame</tspan><tspan class="cls-63" x="40.27" y="0">t</tspan><tspan class="cls-60" x="41.54" y="0">, </tspan><tspan x="43.15" y="0">c</tspan><tspan class="cls-62" x="44.79" y="0">onse</tspan><tspan class="cls-64" x="51.84" y="0">c</tspan><tspan class="cls-65" x="53.52" y="0">t</tspan><tspan class="cls-62" x="54.72" y="0">etuer adipiscing eli</tspan><tspan class="cls-66" x="83.5" y="0">t</tspan><tspan class="cls-60" x="84.78" y="0">, sed diam </tspan><tspan class="cls-67"><tspan x="0" y="3.17">nonum</tspan><tspan class="cls-68" x="10.77" y="3.17">m</tspan><tspan class="cls-60" x="13.75" y="3.17">y nibh euismod tincidunt ut lao</tspan><tspan class="cls-61" x="61" y="3.17">r</tspan><tspan class="cls-60" x="62.2" y="3.17">eet dolo</tspan><tspan class="cls-69" x="74.42" y="3.17">r</tspan><tspan class="cls-60" x="75.62" y="3.17">e magna aliquam e</tspan><tspan class="cls-70" x="104.48" y="3.17">r</tspan><tspan class="cls-60" x="105.7" y="3.17">at </tspan></tspan></text><path class="cls-71" d="M272.61,277.68s-5.85-10.92-10.92-12.87c0,0-1.95-3.71,3.31-1.76a4.64,4.64,0,0,1-1.75-2.32.45.45,0,0,1,.46-.6c2.36.14,10.43,1.62,13.58,15.21l-4.49,3.31" transform="translate(-21.18 -30.33)"/><rect class="cls-17" x="338.63" y="436.44" width="5.82" height="3.14" transform="translate(661.9 845.69) rotate(180)"/><rect class="cls-17" x="302.05" y="436.44" width="5.82" height="3.14" transform="translate(588.74 845.69) rotate(180)"/><path class="cls-17" d="M344.88,438.75v4.34H331.1S328.81,435.9,344.88,438.75Z" transform="translate(-21.18 -30.33)"/><path class="cls-17" d="M308.22,438.75v4.34H294.45S292.15,435.9,308.22,438.75Z" transform="translate(-21.18 -30.33)"/><path class="cls-72" d="M341.7,340.92,339.88,398a22.73,22.73,0,0,0,.25,4.2l5.36,34.37H335.07l-7.26-35.88a22.85,22.85,0,0,1-.41-3.07l-2.14-34.07a.44.44,0,0,0-.85-.13l-11.14,29.35a9,9,0,0,0-.56,2.45L309,436.56h-9l-.47-44.94a9.94,9.94,0,0,1,.19-2L310,340.44Z" transform="translate(-21.18 -30.33)"/><path class="cls-73" d="M310.93,305.05l-20.3-2.54a7.16,7.16,0,0,1-5.35-2.57l-15.95-21.61,9.52-6.66L291,288.5a7.2,7.2,0,0,0,5.52,3L340,288.67l5,62.83-38.56-4.58Z" transform="translate(-21.18 -30.33)"/><path class="cls-73" d="M340.87,295.7l16.56,23.49a6.61,6.61,0,0,1-1.58,9.21l-16.16,11.45-6.39-9.94,12.58-6.86a.6.6,0,0,0,.16-.93l-10.37-11.27.94-16.57,1.9-1.9Z" transform="translate(-21.18 -30.33)"/><path class="cls-71" d="M315.5,270.5a23.28,23.28,0,0,0-3.67,4.5l1.17,1-1.67,4.5,7.84,2,5.5-13.5Z" transform="translate(-21.18 -30.33)"/><path class="cls-74" d="M324.61,261.94c-3-1-6.26.48-8.31,3.63a16.21,16.21,0,0,0-1.85,11.93c-1.95-.62-4.12.36-5.44,2.47a10.62,10.62,0,0,0-1,7.89,9.13,9.13,0,0,0-4.82,2.4,6.59,6.59,0,0,0-1.29,6.39c1,2.35,3.28,2.57,5.21,2.51l37.19-1.22a5.28,5.28,0,0,0,2.86-.67c1.66-1.13,2.39-4.37,1.49-6.64s-3.24-3.1-4.81-1.71c2-1.77,2.79-5.84,1.66-8.77s-4-4.29-6.12-2.91c2.07-3.42,1.66-8.93-.39-12.38a10.41,10.41,0,0,0-8.55-5.19c-3.2-.17-6.36.93-9.46,2,0,1.47,0,2.94-.05,4.41" transform="translate(-21.18 -30.33)"/></g></g></svg>