<svg id="Layer_1" data-name="Layer 1" xmlns="http://www.w3.org/2000/svg" viewBox="0 0 239.08 239.08"><defs><style>.cls-1{fill:#fff;stroke:#231f20;stroke-miterlimit:10;}.cls-2{fill:#010101;}</style></defs><title>create-form1</title><circle class="cls-1" cx="119.54" cy="119.54" r="119.04"/><path class="cls-2" d="M155.28,183H72.62V67h82.65V95.75l8.82-8.81V62.6a4.41,4.41,0,0,0-4.41-4.41H68.22a4.4,4.4,0,0,0-4.41,4.41V187.4a4.4,4.4,0,0,0,4.41,4.41h91.46a4.41,4.41,0,0,0,4.41-4.41V138.92l-8.81,8.81V183Z" transform="translate(-5.46 -5.46)"/><path class="cls-2" d="M142.29,77.57H85.61a3.37,3.37,0,1,0,0,6.73h56.68a3.37,3.37,0,0,0,0-6.73Z" transform="translate(-5.46 -5.46)"/><path class="cls-2" d="M145.65,98.89a3.36,3.36,0,0,0-3.36-3.36H85.61a3.37,3.37,0,1,0,0,6.73h56.68A3.37,3.37,0,0,0,145.65,98.89Z" transform="translate(-5.46 -5.46)"/><path class="cls-2" d="M137.55,113.48H85.61a3.37,3.37,0,1,0,0,6.74h45.2Z" transform="translate(-5.46 -5.46)"/><path class="cls-2" d="M118.72,135.8a20.08,20.08,0,0,1,1.9-4.36h-35a3.37,3.37,0,1,0,0,6.73H118Z" transform="translate(-5.46 -5.46)"/><path class="cls-2" d="M85.61,149.4a3.37,3.37,0,1,0,0,6.73h29.57a10.48,10.48,0,0,1-.48-6.73Z" transform="translate(-5.46 -5.46)"/><path class="cls-2" d="M193.33,83.69a9.4,9.4,0,0,0-13.29,0L130.23,133.5a11.54,11.54,0,0,0-2.91,4.88l-4,13.3a1.6,1.6,0,0,0,1.53,2.06,1.47,1.47,0,0,0,.46-.07l13.3-4a11.54,11.54,0,0,0,4.88-2.91L193.33,97a9.4,9.4,0,0,0,0-13.29Z" transform="translate(-5.46 -5.46)"/></svg>