<svg id="Layer_1" data-name="Layer 1" xmlns="http://www.w3.org/2000/svg" viewBox="0 0 239.08 239.08"><defs><style>.cls-1{fill:#fff;stroke:#231f20;stroke-miterlimit:10;}.cls-2{fill:#010101;}</style></defs><title>create-form</title><circle class="cls-1" cx="119.54" cy="119.54" r="119.04"/><path class="cls-2" d="M75.45,130.51h99.1V86.16H75.45Zm52.66-39.16c6.84,0,12.49,5.8,12.49,13.08H128.11Zm-6.22,6.52V111h12.48c0,7.16-5.55,13.08-12.48,13.08S109.4,118.23,109.4,111,115.05,97.87,121.89,97.87Z" transform="translate(-5.46 -5.46)"/><path class="cls-2" d="M186.46,150.36V73.48H63.54v76.88H113.3L109.1,166H96.72v10.48h56.56V166H140.9l-4.2-15.68Zm-67.41-9.87a2,2,0,0,1,2-2.09h7.91a2.09,2.09,0,0,1,0,4.18H121A2.07,2.07,0,0,1,119.05,140.49Zm-47.6-7.92V84.07a2,2,0,0,1,2-2.09H176.49a2,2,0,0,1,2,2.09v48.61a2,2,0,0,1-2,2.08h-103A2.07,2.07,0,0,1,71.45,132.57Z" transform="translate(-5.46 -5.46)"/></svg>